<svg xmlns="http://www.w3.org/2000/svg" viewBox="0 0 340.08 340.08"><defs><style>.cls-1{fill:#fefefe;}.cls-2{fill:#d4d08a;}.cls-3{fill:#377d9a;}.cls-4{fill:#457847;}.cls-5{fill:#d3d08a;}.cls-6{fill:#fafbfb;}.cls-7{fill:#3e7a72;}</style></defs><g id="Layer_2" data-name="Layer 2"><g id="Layer_1-2" data-name="Layer 1"><path class="cls-1" d="M0,288.76V0H340.08V340.08H0V311.3l3.19-1.89a107,107,0,0,1,34.42-13.26,198.47,198.47,0,0,0,29.81-7.75c5.28-1.9,10.62-3.73,16-5.1,6.51-1.65,13.18-2.69,19.73-4.17,4.66-1.05,9.26-2.38,13.88-3.59a32.79,32.79,0,0,0,2.26,3.07c3.24,3.47,6.49,6.93,9.83,10.3a8.65,8.65,0,0,0,7.09,2.43,32.74,32.74,0,0,0,4.88-.91c4.47-1.07,8.58-2.79,11.51-6.58,1.1-1.42,2.32-2.75,3.34-4.22,2-2.85,3.88-5.76,5.81-8.64.54.08,1.09.18,1.64.24,2.1.23,4.21.37,6.29.68,2.91.44,5.8,1,8.7,1.51a22.2,22.2,0,0,0,7.09,6.48,72.6,72.6,0,0,0,16.25,6.86,19.7,19.7,0,0,0,10.66.2,18.13,18.13,0,0,0,8.42-5.45c3.12.61,6.27,1.14,9.37,1.85C241,285.82,252,287,263,288.1a79,79,0,0,1,12.62,2.52c4.6,1.26,8.36,4.26,12.26,6.9,5.26,3.58,10.59,7,16.67,9.08L320.37,312a29.65,29.65,0,0,1,10.54,5.75c2.23,2,4.5,3.95,6.78,5.89.61.52,1.3.95,2.18,1.59v-1.77c0-11.23,0-22.47,0-33.7,0-1.81-.11-3.38-1.83-4.41a3.09,3.09,0,0,1-.64-.7c-3.07-3.57-6-7.24-9.23-10.69a130.28,130.28,0,0,0-26.33-22.34c-8.58-5.37-17.65-9.75-27.54-12-10.87-2.45-21.86-4.35-32.8-6.5-.08-1.62-.18-3.25-.24-4.88A29.61,29.61,0,0,0,239,217.86a5.17,5.17,0,0,1-.17-.79c1.19.73,2.2,1.29,3.14,1.94,2.08,1.41,4.09,2.94,6.2,4.3,5.45,3.51,11.25,4.27,17.12,1.37a77.32,77.32,0,0,0,11.63-6.85c7.69-5.66,13.63-12.58,14.55-22.7.38-4.26.07-8.39-2-12.15a49.61,49.61,0,0,1-5-12.48c-1.17-5.16-4.49-8.46-8.89-10.78a62.28,62.28,0,0,0-8.61-3.54,46.53,46.53,0,0,0-5.55-1.26c.08-1.51.16-3,.23-4.54,2.38-1.76,4.78-3.48,7.13-5.28a63.57,63.57,0,0,0,15.86-17.16c4.16-6.76,7.59-13.86,8.9-21.79.52-3.15.93-6.34,1.14-9.53a32.23,32.23,0,0,0-.44-5.78,8.16,8.16,0,0,0-3.93-6.38,20.43,20.43,0,0,0-9-2.71c-1.53-.14-3.05-.32-4.58-.48a6.41,6.41,0,0,1,.7-.45q9.58-5.05,19.19-10.08A41.41,41.41,0,0,0,310.21,60a81.37,81.37,0,0,1,6.23-7.57,73.75,73.75,0,0,0,11.78-14.58c1-1.6,2.12-3.1,3.09-4.7.87-1.43,1.68-2.91,2.41-4.41,1.33-2.75,2.59-5.53,4-8.46-.41-.53-1-.54-1.65.21a62.9,62.9,0,0,0-4.22,5c-2.93,4.26-6.43,7.76-11.26,9.9A181.66,181.66,0,0,1,300,43.3a24.2,24.2,0,0,1-13.41.61c-5.73-1.5-11.58-1.68-17.44-1.66-4.3,0-8.6.39-12.89.4q-10.55,0-21.08-.22c-4.58-.11-9.16-.4-13.74-.73-3.57-.26-7.13-.7-10.69-1.1-2.1-.23-4.18-.73-6.28-.76-7.23-.1-14.47-.15-21.7,0-6.1.1-12.19.48-18.29.73-.4,0-.8,0-1.19,0-5,.3-10,.66-15,.88a108.63,108.63,0,0,1-19.32-1.21A81.4,81.4,0,0,1,111.41,36a93.51,93.51,0,0,0-14.83-4.17,112.23,112.23,0,0,1-12.28-3c-5-1.55-9.85-3.5-14.77-5.24A68.55,68.55,0,0,0,48.31,19.2c-6-.16-12-.25-18-.54a33.7,33.7,0,0,1-11-2.5A107.79,107.79,0,0,0,8.78,12.4a19.28,19.28,0,0,0-5.33-.24c-.71,0-1.09.42-.94,1.3A49,49,0,0,0,8.94,30.62c3.93,6.53,7.94,13,12,19.5a41.07,41.07,0,0,0,8.72,10.44,101.91,101.91,0,0,0,18.56,11.8c5.6,2.82,11.28,5.47,17,8,9.6,4.33,18.83,9.5,29,12.64-.46,2.52-.89,5-1.39,7.55a78.93,78.93,0,0,0-1.56,13.26c0,1.7.21,3.41.33,5.31-.83-1.73-1.53-3.34-2.35-4.87a21.61,21.61,0,0,0-11.93-10.53,9.52,9.52,0,0,0-4.32-.53,47.21,47.21,0,0,0-6.57,1.58c-4.47,1.24-8.77,3-12.11,6.28-5.56,5.38-11,10.9-16.17,16.68-3.53,4-4.08,9-2.75,14,1,3.8,2.37,7.5,3.66,11.22a51.31,51.31,0,0,0,7.22,14.25c6.28,8.38,15,12.07,25.12,12.77,2.79.19,5.62,0,8.43,0-.08.31-.18.41-.31.47-5.44,2.59-9.64,6.63-13.26,11.34A88,88,0,0,0,54,214.81a98.31,98.31,0,0,0-4.42,14.25,36,36,0,0,0-.53,13.4,24.42,24.42,0,0,0,4.52,10.82C48,256,42.45,258.8,36.83,261.37c-5.22,2.4-10.67,4.4-15.27,7.91a93.24,93.24,0,0,0-9.09,8.13A132.68,132.68,0,0,1,0,288.76Z"/><path class="cls-2" d="M117.08,275.54c-4.62,1.21-9.22,2.54-13.88,3.59-6.55,1.48-13.22,2.52-19.73,4.17-5.43,1.37-10.77,3.2-16,5.1a198.47,198.47,0,0,1-29.81,7.75A107,107,0,0,0,3.19,309.41L0,311.3V288.76a132.68,132.68,0,0,0,12.47-11.35,93.24,93.24,0,0,1,9.09-8.13c4.6-3.51,10.05-5.51,15.27-7.91C42.45,258.8,48,256,53.52,253.28c1.24,1.28,2.39,2.65,3.74,3.81,2.76,2.36,5.91,4,9.67,3.55A37.58,37.58,0,0,0,75,259c14.61-5.1,28.23-11.95,39.37-23a9.74,9.74,0,0,1,1.53-1.07l4.37,2.5c-.9,2.37-2.17,4.68-2.62,7.13a137,137,0,0,0-1.77,14C115.39,264.26,115.09,270,117.08,275.54Z"/><path class="cls-3" d="M115.87,234.94a9.74,9.74,0,0,0-1.53,1.07C103.2,247.08,89.58,253.93,75,259a37.58,37.58,0,0,1-8,1.61c-3.76.45-6.91-1.19-9.67-3.55-1.35-1.16-2.5-2.53-3.74-3.81A24.42,24.42,0,0,1,49,242.46a36,36,0,0,1,.53-13.4A98.31,98.31,0,0,1,54,214.81a88,88,0,0,1,12.21-22.92c3.62-4.71,7.82-8.75,13.26-11.34.13-.06.23-.16.31-.47-2.81,0-5.64.16-8.43,0-10.16-.7-18.84-4.39-25.12-12.77A51.31,51.31,0,0,1,39,153c-1.29-3.72-2.67-7.42-3.66-11.22-1.33-5.05-.78-10.08,2.75-14,5.15-5.78,10.61-11.3,16.17-16.68,3.34-3.24,7.64-5,12.11-6.28a47.21,47.21,0,0,1,6.57-1.58,9.52,9.52,0,0,1,4.32.53,21.61,21.61,0,0,1,11.93,10.53c.82,1.53,1.52,3.14,2.35,4.87-.12-1.9-.37-3.61-.33-5.31a78.93,78.93,0,0,1,1.56-13.26c.5-2.51.93-5,1.39-7.55s1.2-4.87,1.84-7.3C99,74.31,105.4,65.61,116.53,60.81c2.83-1.22,5.72-2.24,8.81-1.73,6,1,11.11,3.62,14.64,8.69,3.81,5.48,7.69,10.9,12,16a22.31,22.31,0,0,1,4.34,8.33c.23.82.42,1.65.69,2.76.17-.6.24-.91.34-1.21a99.68,99.68,0,0,1,3.27-9.85,67.64,67.64,0,0,1,20.35-25.67c5-3.93,10.29-7.31,16.73-8.41,1.1-.18,2.16-.6,3.26-.78a19,19,0,0,1,4.22-.45,26.07,26.07,0,0,1,5.54.92c5.32,1.5,9.4,4.56,11.37,9.9,1.53,4.15,1.68,8.54,1.59,12.88-.08,3.62-.48,7.23-.84,10.84-.28,2.85-.66,5.7-1.1,8.53s-1,5.49-1.51,8.23l-2.92,10.92c.17,0,.27,0,.31-.09a1.84,1.84,0,0,0,.36-.47,22.38,22.38,0,0,1,6.22-7.64c2-1.71,4.2-3.28,6.31-4.91,3.71-2.11,7.33-4.4,11.15-6.29,11.1-5.51,22.44-10.28,35.18-10.07,1.53.16,3.05.34,4.58.48a20.43,20.43,0,0,1,9,2.71,8.16,8.16,0,0,1,3.93,6.38,32.23,32.23,0,0,1,.44,5.78c-.21,3.19-.62,6.38-1.14,9.53-1.31,7.93-4.74,15-8.9,21.79a63.57,63.57,0,0,1-15.86,17.16c-2.35,1.8-4.75,3.52-7.13,5.28-.17-1.82-.22-3.66-.53-5.46-.91-5.25-2.86-8.43-8.89-9.95-4.61-1.16-9.25-.74-13.88-.07q-6.12.89-12.26,1.81a78.66,78.66,0,0,0-8.69,1.41,102,102,0,0,0-10.88,3.62c-6.35,2.47-12.61,5.17-19,7.64a1.93,1.93,0,0,0-1.5,2.32,100.7,100.7,0,0,1,.43,10.26c-.15,3.86.13,7.84-2.15,11.37-1.14,1.76-1.77,3.86-2.9,5.63-1.85,2.89-4.42,3.54-7,1.85a9.55,9.55,0,0,1-2.53-2.5,21.61,21.61,0,0,1-3.8-13.33c.1-4.9,2.11-8.76,6.47-11.07a70.28,70.28,0,0,1,8.26-3.41c.71-.27,1-.56.88-1.26a52.54,52.54,0,0,0-.64-5.32,85,85,0,0,1-2-15.95A82.87,82.87,0,0,0,179,113c-.93-4.31-1.79-8.64-2.74-13a45.39,45.39,0,0,0-1.45-5.53,5,5,0,0,0-6.32-3.38,23.64,23.64,0,0,0-8.24,4.15,3.36,3.36,0,0,1-1.5.62,8.71,8.71,0,0,1-4.9-.78,13.49,13.49,0,0,0-6.94-1.38,59.21,59.21,0,0,1-17.07-1.53c-4.15-1-8.32-.7-12,2.1a20.82,20.82,0,0,0-6.34,8c-2.23,4.94-4.3,10-6.17,15-2.23,6.07-2.37,12.47-2.42,18.85V138h.43V136.2a70,70,0,0,1,1.94-8.45c1.4-3.84,3.73-6.93,8.28-7.55,2.69-.37,5.21.32,6.23,2.21a19.92,19.92,0,0,1,1.76,4.18,51.24,51.24,0,0,1,1.71,17.12c-.22,3.57-.46,7.15-1,10.68a22.33,22.33,0,0,1-3.55,9.68c-2.11,3-5.67,3.83-8.61,1.85-3.46-2.32-5.21-5.87-6.22-9.76-.53-2-.73-4.17-1.07-6.27-.3,1.83-.42,3.65-.64,5.46-.56,4.57-1.22,9.14-1.71,13.72-.55,5.05-1,10.12-1.37,15.19-.19,2.87,0,5.76,0,8.63a7.16,7.16,0,0,0,.1,1.31,127.37,127.37,0,0,0,6.64,22.55,65.51,65.51,0,0,0,8.39,15.94C114.77,233.43,115.32,234.19,115.87,234.94Z"/><path class="cls-4" d="M115.87,234.94c-.55-.75-1.1-1.51-1.67-2.25a65.51,65.51,0,0,1-8.39-15.94,127.37,127.37,0,0,1-6.64-22.55,7.16,7.16,0,0,1-.1-1.31c0-2.87-.16-5.76,0-8.63.34-5.07.82-10.14,1.37-15.19.49-4.58,1.15-9.15,1.71-13.72.22-1.81.34-3.63.64-5.46.34,2.1.54,4.23,1.07,6.27,1,3.89,2.76,7.44,6.22,9.76,2.94,2,6.5,1.11,8.61-1.85a22.33,22.33,0,0,0,3.55-9.68c.55-3.53.79-7.11,1-10.68a51.24,51.24,0,0,0-1.71-17.12,19.92,19.92,0,0,0-1.76-4.18c-1-1.89-3.54-2.58-6.23-2.21-4.55.62-6.88,3.71-8.28,7.55a70,70,0,0,0-1.94,8.45h-.43c0-6.38.19-12.78,2.42-18.85,1.87-5.09,3.94-10.1,6.17-15a20.82,20.82,0,0,1,6.34-8c3.64-2.8,7.81-3.14,12-2.1a59.21,59.21,0,0,0,17.07,1.53,13.49,13.49,0,0,1,6.94,1.38,8.71,8.71,0,0,0,4.9.78,3.36,3.36,0,0,0,1.5-.62,23.64,23.64,0,0,1,8.24-4.15,5,5,0,0,1,6.32,3.38,45.39,45.39,0,0,1,1.45,5.53c.95,4.31,1.81,8.64,2.74,13a82.87,82.87,0,0,1,2.16,15,85,85,0,0,0,2,15.95,52.54,52.54,0,0,1,.64,5.32c.08.7-.17,1-.88,1.26a70.28,70.28,0,0,0-8.26,3.41c-4.36,2.31-6.37,6.17-6.47,11.07a21.61,21.61,0,0,0,3.8,13.33,9.55,9.55,0,0,0,2.53,2.5c2.61,1.69,5.18,1,7-1.85,1.13-1.77,1.76-3.87,2.9-5.63,2.28-3.53,2-7.51,2.15-11.37a100.7,100.7,0,0,0-.43-10.26,1.93,1.93,0,0,1,1.5-2.32c6.35-2.47,12.61-5.17,19-7.64a102,102,0,0,1,10.88-3.62,78.66,78.66,0,0,1,8.69-1.41q6.13-.93,12.26-1.81c4.63-.67,9.27-1.09,13.88.07,6,1.52,8,4.7,8.89,9.95.31,1.8.36,3.64.53,5.46-.07,1.51-.15,3-.23,4.54a21.91,21.91,0,0,1-.4,2.83c-2,7.61-5.3,14.54-11.24,19.94a18,18,0,0,1-15.42,4.78,1.12,1.12,0,0,1-.75-.7,12.26,12.26,0,0,1-.28-2.49c0-2.75.1-5.52-.06-8.27a18.11,18.11,0,0,0-1-5,4.35,4.35,0,0,0-4.14-2.94c-2-.08-3.2,1.24-4.11,2.82a7.35,7.35,0,0,0-.3,6.56c1.66,4.42,4.08,8.12,8.78,9.82a1.08,1.08,0,0,1,.58.76,45.83,45.83,0,0,1,.47,5.34c0,3.87-.11,7.74-.22,11.61,0,1.15-.15,2.31-.29,3.45-.44,3.59-.86,7.18-1.37,10.76-.6,4.2-1,8.45-2,12.58-1.6,6.88-5.71,11.75-12.75,13.53a40.63,40.63,0,0,1-9.29,1.35,158,158,0,0,0-19.08,1,38.41,38.41,0,0,1-7.88.19c-4.43-.32-8.85-.91-13.27-1.39a4.15,4.15,0,0,1-.7-.28c1.57-1.28,2.94-2.48,4.39-3.57,2.54-1.9,4.76-4.08,4.88-7.43.09-2.53-.39-5.07-.51-7.61-.09-1.91-1.28-2.89-2.75-3.74a20.09,20.09,0,0,0-9.5-2.49c-3.18-.1-6.38.08-9.56.25-1.86.09-3.82.16-5.25,1.61s-2.7,2.93-3.94,4.48a4.28,4.28,0,0,0-.68,4.1,22.59,22.59,0,0,0,5.1,9c3.43,3.54,7.85,5,12.6,5.72,1.11.17,2.22.29,3.39.44-1.27,1-2.44,1.92-3.55,2.87-2.27,1.95-4.65,3.75-7.77,3.86a47.89,47.89,0,0,1-7.48-.23,45.05,45.05,0,0,1-16.83-5.84c-3-1.71-6-3.44-9-5.16Z"/><path class="cls-2" d="M276.81,81.27c-12.74-.21-24.08,4.56-35.18,10.07-3.82,1.89-7.44,4.18-11.15,6.29-.19,0-.39,0-.59.06l-9.69,2.13c.51-2.74,1.08-5.47,1.51-8.23s.82-5.68,1.1-8.53c.36-3.61.76-7.22.84-10.84.09-4.34-.06-8.73-1.59-12.88-2-5.34-6.05-8.4-11.37-9.9a26.07,26.07,0,0,0-5.54-.92,19,19,0,0,0-4.22.45c-1.1.18-2.16.6-3.26.78-6.44,1.1-11.75,4.48-16.73,8.41a67.64,67.64,0,0,0-20.35,25.67,99.68,99.68,0,0,0-3.27,9.85c-.1.3-.17.61-.34,1.21-.27-1.11-.46-1.94-.69-2.76A22.31,22.31,0,0,0,152,83.8c-4.28-5.13-8.16-10.55-12-16-3.53-5.07-8.67-7.7-14.64-8.69-3.09-.51-6,.51-8.81,1.73C105.4,65.61,99,74.31,96,85.74c-.64,2.43-1.23,4.87-1.84,7.3C84,89.9,74.77,84.73,65.17,80.4c-5.71-2.57-11.39-5.22-17-8a101.91,101.91,0,0,1-18.56-11.8A41.07,41.07,0,0,1,20.9,50.12c-4-6.48-8-13-12-19.5A49,49,0,0,1,2.51,13.46c-.15-.88.23-1.29.94-1.3a19.28,19.28,0,0,1,5.33.24,107.79,107.79,0,0,1,10.56,3.76,33.7,33.7,0,0,0,11,2.5c6,.29,12,.38,18,.54a68.55,68.55,0,0,1,21.22,4.41c4.92,1.74,9.79,3.69,14.77,5.24a112.23,112.23,0,0,0,12.28,3A93.51,93.51,0,0,1,111.41,36a81.4,81.4,0,0,0,17.51,4.2,108.63,108.63,0,0,0,19.32,1.21c5-.22,10-.58,15-.88.39,0,.79,0,1.19,0,6.1-.25,12.19-.63,18.29-.73,7.23-.13,14.47-.08,21.7,0,2.1,0,4.18.53,6.28.76,3.56.4,7.12.84,10.69,1.1,4.58.33,9.16.62,13.74.73q10.53.26,21.08.22c4.29,0,8.59-.39,12.89-.4,5.86,0,11.71.16,17.44,1.66A24.2,24.2,0,0,0,300,43.3a181.66,181.66,0,0,0,20.56-7.85c4.83-2.14,8.33-5.64,11.26-9.9a62.9,62.9,0,0,1,4.22-5c.63-.75,1.24-.74,1.65-.21-1.37,2.93-2.63,5.71-4,8.46-.73,1.5-1.54,3-2.41,4.41-1,1.6-2.12,3.1-3.09,4.7a73.75,73.75,0,0,1-11.78,14.58A81.37,81.37,0,0,0,310.21,60,41.41,41.41,0,0,1,296.7,70.74q-9.6,5-19.19,10.08A6.41,6.41,0,0,0,276.81,81.27Z"/><path class="cls-3" d="M120.24,237.44c3,1.72,6,3.45,9,5.16a45.05,45.05,0,0,0,16.83,5.84,47.89,47.89,0,0,0,7.48.23c3.12-.11,5.5-1.91,7.77-3.86,1.11-.95,2.28-1.84,3.55-2.87-1.17-.15-2.28-.27-3.39-.44-4.75-.69-9.17-2.18-12.6-5.72a22.59,22.59,0,0,1-5.1-9,4.28,4.28,0,0,1,.68-4.1c1.24-1.55,2.55-3.06,3.94-4.48s3.39-1.52,5.25-1.61c3.18-.17,6.38-.35,9.56-.25a20.09,20.09,0,0,1,9.5,2.49c1.47.85,2.66,1.83,2.75,3.74.12,2.54.6,5.08.51,7.61-.12,3.35-2.34,5.53-4.88,7.43-1.45,1.09-2.82,2.29-4.39,3.57a4.15,4.15,0,0,0,.7.28c4.42.48,8.84,1.07,13.27,1.39a38.41,38.41,0,0,0,7.88-.19,158,158,0,0,1,19.08-1,40.63,40.63,0,0,0,9.29-1.35c7-1.78,11.15-6.65,12.75-13.53,1-4.13,1.4-8.38,2-12.58.51-3.58.93-7.17,1.37-10.76.14-1.14.26-2.3.29-3.45.11-3.87.23-7.74.22-11.61a45.83,45.83,0,0,0-.47-5.34,1.08,1.08,0,0,0-.58-.76c-4.7-1.7-7.12-5.4-8.78-9.82a7.35,7.35,0,0,1,.3-6.56c.91-1.58,2.09-2.9,4.11-2.82a4.35,4.35,0,0,1,4.14,2.94,18.11,18.11,0,0,1,1,5c.16,2.75,0,5.52.06,8.27a12.26,12.26,0,0,0,.28,2.49,1.12,1.12,0,0,0,.75.7,18,18,0,0,0,15.42-4.78c5.94-5.4,9.2-12.33,11.24-19.94a21.91,21.91,0,0,0,.4-2.83,46.53,46.53,0,0,1,5.55,1.26,62.28,62.28,0,0,1,8.61,3.54c4.4,2.32,7.72,5.62,8.89,10.78a49.61,49.61,0,0,0,5,12.48c2,3.76,2.35,7.89,2,12.15-.92,10.12-6.86,17-14.55,22.7a77.32,77.32,0,0,1-11.63,6.85c-5.87,2.9-11.67,2.14-17.12-1.37-2.11-1.36-4.12-2.89-6.2-4.3-.94-.65-2-1.21-3.14-1.94a5.17,5.17,0,0,0,.17.79,29.61,29.61,0,0,1,2.27,10.37c.06,1.63.16,3.26.24,4.88-.1,1-.18,2.07-.32,3.1a74.87,74.87,0,0,1-7,22.53,143.29,143.29,0,0,1-13.38,22.77,18.13,18.13,0,0,1-8.42,5.45,19.7,19.7,0,0,1-10.66-.2,72.6,72.6,0,0,1-16.25-6.86,22.2,22.2,0,0,1-7.09-6.48c-.42-.82-.86-1.62-1.24-2.45-2.71-6.07-2.82-12.61-3.52-19.05-.19-1.73-.22-3.47-.32-5.21a1,1,0,0,0-.54.59A72.55,72.55,0,0,1,166.73,262c-1.57,3.05-3.28,6-4.93,9-1.93,2.88-3.82,5.79-5.81,8.64-1,1.47-2.24,2.8-3.34,4.22-2.93,3.79-7,5.51-11.51,6.58a32.74,32.74,0,0,1-4.88.91,8.65,8.65,0,0,1-7.09-2.43c-3.34-3.37-6.59-6.83-9.83-10.3a32.79,32.79,0,0,1-2.26-3.07c-2-5.54-1.69-11.28-1.23-17a137,137,0,0,1,1.77-14C118.07,242.12,119.34,239.81,120.24,237.44Z"/><path class="cls-2" d="M220.85,281.51a143.29,143.29,0,0,0,13.38-22.77,74.87,74.87,0,0,0,7-22.53c.14-1,.22-2.06.32-3.1,10.94,2.15,21.93,4,32.8,6.5,9.89,2.23,19,6.61,27.54,12a130.28,130.28,0,0,1,26.33,22.34c3.2,3.45,6.16,7.12,9.23,10.69a3.09,3.09,0,0,0,.64.7c1.72,1,1.84,2.6,1.83,4.41-.07,11.23,0,22.47,0,33.7v1.77c-.88-.64-1.57-1.07-2.18-1.59-2.28-1.94-4.55-3.9-6.78-5.89A29.65,29.65,0,0,0,320.37,312L304.5,306.6c-6.08-2.06-11.41-5.5-16.67-9.08-3.9-2.64-7.66-5.64-12.26-6.9A79,79,0,0,0,263,288.1c-11-1.12-21.94-2.28-32.73-4.74C227.12,282.65,224,282.12,220.85,281.51Z"/><path class="cls-5" d="M161.8,271c1.65-3,3.36-6,4.93-9a72.55,72.55,0,0,0,6.08-14.66,1,1,0,0,1,.54-.59c.1,1.74.13,3.48.32,5.21.7,6.44.81,13,3.52,19.05.38.83.82,1.63,1.24,2.45-2.9-.51-5.79-1.07-8.7-1.51-2.08-.31-4.19-.45-6.29-.68C162.89,271.17,162.34,271.07,161.8,271Z"/><path class="cls-6" d="M220.2,99.82l9.69-2.13c.2,0,.4,0,.59-.06-2.11,1.63-4.27,3.2-6.31,4.91a22.38,22.38,0,0,0-6.22,7.64,1.84,1.84,0,0,1-.36.47s-.14,0-.31.09Z"/><path class="cls-7" d="M102.93,136.19h.43V138h-.43Z"/></g></g></svg>